<svg xmlns="http://www.w3.org/2000/svg" viewBox="0 0 64 64" role="img" aria-label="Tea cup">
  <path
    d="M18 29h25v8c0 8-6 14-14 14h-1c-8 0-14-6-14-14v-4c0-2 2-4 4-4Z"
    fill="none"
    stroke="#fffaf2"
    stroke-linecap="round"
    stroke-linejoin="round"
    stroke-width="5"
  />
  <path
    d="M43 32h4c4 0 7 3 7 7s-3 7-7 7h-5"
    fill="none"
    stroke="#fffaf2"
    stroke-linecap="round"
    stroke-linejoin="round"
    stroke-width="5"
  />
  <path
    d="M20 53h25"
    fill="none"
    stroke="#fffaf2"
    stroke-linecap="round"
    stroke-width="5"
  />
  <path
    d="M24 21c-3-4 4-6 1-10M34 21c-3-4 4-6 1-10M44 21c-3-4 4-6 1-10"
    fill="none"
    stroke="#fffaf2"
    stroke-linecap="round"
    stroke-linejoin="round"
    stroke-width="4"
  />
</svg>
